<svg width="31" height="31" viewBox="0 0 31 31" fill="none" xmlns="http://www.w3.org/2000/svg">
<circle cx="15.5" cy="15.5001" r="10.5" transform="rotate(45 15.5 15.5001)" fill="#12332F"/>
<path d="M18.7532 15.6053C18.9484 15.41 18.9484 15.0934 18.7532 14.8982L15.5712 11.7162C15.3759 11.5209 15.0593 11.5209 14.8641 11.7162C14.6688 11.9114 14.6688 12.228 14.8641 12.4233L17.6925 15.2517L14.8641 18.0801C14.6688 18.2754 14.6688 18.592 14.8641 18.7872C15.0593 18.9825 15.3759 18.9825 15.5712 18.7872L18.7532 15.6053ZM12.0996 14.7517C11.8235 14.7517 11.5996 14.9756 11.5996 15.2517C11.5996 15.5279 11.8235 15.7517 12.0996 15.7517V14.7517ZM18.3996 15.2517V14.7517H12.0996V15.2517V15.7517H18.3996V15.2517Z" fill="#E2FBF8"/>
</svg>
