<?xml version="1.0" encoding="UTF-8"?>
<svg id="Layer_2" data-name="Layer 2" xmlns="http://www.w3.org/2000/svg" xmlns:xlink="http://www.w3.org/1999/xlink" viewBox="0 0 62.89 19.7">
  <defs>
    <style>
      .cls-1, .cls-2 {
        mix-blend-mode: soft-light;
      }

      .cls-1, .cls-3 {
        fill: #779695;
      }

      .cls-4 {
        fill: #bd8b6b;
      }

      .cls-5 {
        fill: #fff;
      }

      .cls-6 {
        mask: url(#mask);
      }

      .cls-7 {
        fill: #fff7ea;
      }

      .cls-8 {
        fill: #2c5366;
      }
    </style>
    <mask id="mask" x="0" y="0" width="19.76" height="19.76" maskUnits="userSpaceOnUse">
      <circle class="cls-5" cx="9.65" cy="10.29" r="5.05"/>
    </mask>
    <symbol id="New_Symbol" data-name="New Symbol" viewBox="0 0 19.76 19.76">
      <g class="cls-6">
        <g>
          <g class="cls-2">
            <circle class="cls-8" cx="6.22" cy="7.78" r="6.22"/>
          </g>
          <g class="cls-2">
            <circle class="cls-4" cx="13.54" cy="11.99" r="6.22"/>
          </g>
          <g class="cls-2">
            <circle class="cls-7" cx="11.99" cy="6.22" r="6.22"/>
          </g>
          <circle class="cls-1" cx="7.78" cy="13.54" r="6.22"/>
        </g>
      </g>
    </symbol>
  </defs>
  <path class="cls-3" d="M49.42,15.42c.9.11,1.65-.24,2.29-.7.72-.51,1.31-1.19,1.84-1.89.27-.35.81.57.78.82-.12,1.41,1.44,1.9,2.6,1.92,1.6.03,2.4-.59,4.28-1.97.29-.22.9.79.54,1.05-1.53,1.12-3.3,2.26-5.22,1.86-1.6-.33-3.15-1.88-3-3.6l.78.82c-.72.93-1.52,1.89-2.6,2.4-.81.39-1.91.57-2.65-.06s-.98-1.9-.67-2.79c.12-.34.37-.6.61-.85.33-.34.68-.66,1.08-.91.86-.53,1.82-.52,2.74-.16l.37,1.02c-.58-.24-1.22-.39-1.83-.17-.57.21-1.05.64-1.49,1.04-1.1,1.02-1.82,2.37-2.94,3.37-.25.23-.71-.59-.73-.76-.09-.86-.28-1.7-.6-2.5-.14-.35-.3-.72-.5-1.04-.16-.24-.42-.24-.65-.07-.3.23-.47.63-.64.95-.21.39-.41.79-.61,1.18-.4.81-.78,1.64-1.13,2.48-.09.21-.37-.04-.45-.13-.18-.18-.32-.43-.34-.69-.11-1.66-.23-3.32-.34-4.98l.67.89c-2.35.51-3.84,2.69-5.08,4.57-.13.2-.4-.06-.5-.18-.16-.19-.32-.46-.27-.72.35-1.7.86-3.36,1.52-4.95.1-.23.42.09.5.18.15.18.35.48.27.72-.61,1.88-1.33,3.95-3.11,5.03-1.33.81-3.07.73-4.22-.39-1.5-1.47-1.23-3.65-.7-5.49,1.08-3.75,2.74-7.36,4.82-10.66.07-.11.2-.08.29,0,.36.27.65.61.85,1.01.69,1.33.35,3.05.04,4.44-.33,1.46-.89,2.87-1.64,4.17-1.49,2.6-3.72,4.79-6.4,6.16-.66.34-1.35.63-2.06.86s-1.42.43-2.15.33c-.81-.1-1.46-.6-1.84-1.32-.4-.76-.34-1.6-.02-2.38.61-1.47,1.88-2.71,3.28-3.41.34-.17.72-.34,1.08-.12.41.25.68.74.71,1.21.03.71-.36,1.45-.78,1.99-.99,1.28-2.53,1.99-4.02,2.51-1.83.64-3.75.97-5.69.99h0c-.37,0-.89-1.05-.54-1.05,1.94-.02,3.88-.35,5.71-1.01,1.42-.51,2.96-1.22,3.88-2.48.2-.28.37-.58.49-.9.05-.13.09-.27.12-.41.02-.08.01-.18.04-.25-.01-.16.03-.12.13.12l.13.21s-.3.07-.35.09c-.09.04-.17.08-.26.12-.14.07-.28.15-.42.23-.3.18-.59.38-.86.61-.55.45-1.03.98-1.41,1.57s-.74,1.28-.7,1.99c.01.22.04.33.22.44.24.14.53.18.81.19.63.02,1.26-.14,1.85-.34,1.24-.41,2.43-1.01,3.51-1.74,2.18-1.48,3.97-3.52,5.16-5.87.59-1.17,1.04-2.42,1.3-3.7.13-.63.21-1.27.25-1.91.02-.34.02-.67-.05-1.01-.03-.16-.07-.36-.2-.46h.29c-1.06,1.68-2.01,3.45-2.83,5.27-.73,1.62-1.36,3.29-1.88,4.99-.27.9-.51,1.82-.52,2.77,0,.69.09,1.35.71,1.73,1.27.79,2.84.26,3.86-.67,1.26-1.14,1.81-2.82,2.32-4.39l.77.9c-.67,1.6-1.18,3.26-1.52,4.95l-.77-.9c1.31-1.99,2.84-4.18,5.3-4.72.16-.03.36.22.43.32.13.17.22.36.24.57.11,1.66.23,3.32.34,4.98l-.78-.82c.43-1.03.9-2.05,1.41-3.05.23-.44.44-.91.73-1.31.22-.32.53-.58.94-.51.47.08.83.5,1.09.87.29.43.52.91.72,1.38.42.97.69,2,.79,3.05l-.73-.76c1.16-1.05,1.92-2.46,3.08-3.5.46-.41.95-.81,1.55-.98.65-.18,1.32-.02,1.93.23.25.1.45.39.54.64.05.14.09.48-.17.38-.88-.34-1.74-.31-2.54.22-.33.22-.63.49-.91.78-.2.21-.41.41-.54.67-.14.29-.15.62-.12.94.01.12.02.17.09.3,0,0,0,.03.06.07,0,0,.06.04.11.05"/>
  <use width="19.76" height="19.76" transform="translate(-3.32 2.81)" xlink:href="#New_Symbol"/>
</svg>