<svg width="134" height="43" viewBox="0 0 134 43" fill="none" xmlns="http://www.w3.org/2000/svg">
<g clip-path="url(#clip0_353_165)">
<path d="M105.885 29.3649C107.597 29.5744 109.023 28.9079 110.241 28.0319C111.61 27.0607 112.732 25.7657 113.741 24.4327C114.254 23.7661 115.281 25.5181 115.224 25.9942C114.996 28.6793 117.963 29.6125 120.17 29.6506C123.213 29.7077 124.735 28.527 128.311 25.899C128.863 25.4801 130.023 27.4034 129.338 27.8986C126.428 30.0314 123.061 32.2024 119.409 31.4406C116.365 30.8122 113.417 27.8605 113.703 24.585L115.186 26.1466C113.817 27.9176 112.295 29.7458 110.241 30.717C108.7 31.4597 106.608 31.8025 105.2 30.6027C103.792 29.403 103.336 26.9845 103.926 25.2896C104.154 24.6421 104.629 24.147 105.086 23.6709C105.714 23.0235 106.379 22.4141 107.14 21.938C108.776 20.9287 110.602 20.9477 112.352 21.6333L113.056 23.5757C111.953 23.1187 110.735 22.833 109.575 23.252C108.491 23.6519 107.578 24.4708 106.741 25.2325C104.648 27.1749 103.279 29.7458 101.148 31.6501C100.673 32.0881 99.7979 30.5266 99.7599 30.2028C99.5887 28.5651 99.2273 26.9654 98.6186 25.442C98.3523 24.7754 98.048 24.0708 97.6675 23.4615C97.3632 23.0044 96.8686 23.0044 96.4311 23.3281C95.8605 23.7661 95.5371 24.5279 95.2138 25.1373C94.8143 25.88 94.4339 26.6417 94.0535 27.3844C93.2926 28.9269 92.5698 30.5075 91.9041 32.1072C91.7329 32.5071 91.2003 32.031 91.0481 31.8596C90.7057 31.5168 90.4394 31.0407 90.4014 30.5456C90.1921 27.3844 89.9639 24.2232 89.7547 21.062L91.0291 22.7568C86.5591 23.7281 83.7249 27.8795 81.3663 31.4597C81.119 31.8405 80.6054 31.3454 80.4152 31.1169C80.1108 30.7551 79.8065 30.2409 79.9016 29.7458C80.5674 26.5084 81.5374 23.3472 82.7929 20.3193C82.9831 19.8813 83.5918 20.4907 83.7439 20.6621C84.0292 21.0049 84.4097 21.5762 84.2575 22.0332C83.0972 25.6134 81.7277 29.5553 78.3419 31.612C75.812 33.1545 72.5023 33.0022 70.3149 30.8693C67.4617 28.07 67.9752 23.9185 68.9834 20.4145C71.0377 13.2732 74.1952 6.39856 78.1517 0.114242C78.2848 -0.0952356 78.5321 -0.0381054 78.7033 0.114242C79.388 0.628414 79.9397 1.27589 80.3201 2.03763C81.6326 4.5704 80.9858 7.84586 80.3962 10.4929C79.7685 13.2732 78.7033 15.9584 77.2767 18.434C74.4425 23.3853 70.2007 27.5558 65.103 30.1647C63.8476 30.8122 62.5351 31.3645 61.1846 31.8025C59.8341 32.2405 58.4836 32.6213 57.0951 32.4309C55.5543 32.2405 54.3179 31.2883 53.5951 29.9172C52.8343 28.4699 52.9484 26.8702 53.5571 25.3848C54.7174 22.5855 57.1331 20.2241 59.7961 18.891C60.4428 18.5673 61.1656 18.2436 61.8504 18.6625C62.6303 19.1386 63.1438 20.0717 63.2009 20.9668C63.258 22.3188 62.5161 23.7281 61.7172 24.7564C59.8341 27.194 56.9048 28.546 54.0707 29.5363C50.5898 30.7551 46.9377 31.3835 43.2475 31.4216C42.5437 31.4216 41.5546 29.422 42.2204 29.422C45.9105 29.3839 49.6006 28.7555 53.0816 27.4987C55.7826 26.5274 58.7119 25.1754 60.4618 22.7759C60.8423 22.2427 61.1656 21.6714 61.3939 21.062C61.489 20.8144 61.5651 20.5478 61.6221 20.2812C61.6602 20.1289 61.6411 19.9384 61.6982 19.8051C61.6792 19.5004 61.7553 19.5766 61.9455 20.0336L62.1928 20.4335C62.1928 20.4335 61.6221 20.5669 61.527 20.6049C61.3558 20.6811 61.2037 20.7573 61.0325 20.8335C60.7662 20.9668 60.4999 21.1191 60.2336 21.2715C59.6629 21.6142 59.1113 21.9951 58.5977 22.4331C57.5516 23.2901 56.6385 24.2994 55.9157 25.4229C55.1929 26.5465 54.5082 27.8605 54.5842 29.2126C54.6033 29.6315 54.6603 29.841 55.0027 30.0505C55.4592 30.3171 56.0108 30.3932 56.5434 30.4123C57.7418 30.4504 58.9401 30.1457 60.0624 29.7648C62.421 28.984 64.6846 27.8414 66.7389 26.4513C70.8855 23.6328 74.2903 19.748 76.5539 15.2728C77.6761 13.0447 78.5321 10.6643 79.0266 8.22673C79.2739 7.027 79.4261 5.80822 79.5022 4.58944C79.5402 3.94197 79.5402 3.31353 79.4071 2.66606C79.35 2.36136 79.2739 1.9805 79.0266 1.79006H79.5783C77.562 4.98935 75.755 8.36003 74.1952 11.8259C72.8067 14.911 71.6083 18.0912 70.6192 21.3286C70.1056 23.0425 69.6491 24.7945 69.6301 26.6036C69.6301 27.9176 69.8013 29.1745 70.9806 29.8981C73.3963 31.4025 76.3827 30.3932 78.3228 28.6222C80.7195 26.4513 81.7657 23.252 82.7358 20.2622L84.2004 21.9761C82.926 25.023 81.9559 28.1842 81.3092 31.4025L79.8446 29.6886C82.3363 25.899 85.2466 21.7285 89.9259 20.7002C90.2302 20.643 90.6106 21.1191 90.7438 21.3095C90.991 21.6333 91.1622 21.9951 91.2003 22.395C91.4095 25.5562 91.6378 28.7174 91.847 31.8786L90.3633 30.3171C91.1813 28.3556 92.0753 26.4132 93.0454 24.5088C93.4828 23.6709 93.8823 22.7759 94.4339 22.0142C94.8524 21.4048 95.442 20.9096 96.2219 21.0429C97.1159 21.1953 97.8007 21.9951 98.2952 22.6997C98.8469 23.5186 99.2843 24.4327 99.6648 25.3277C100.464 27.1749 100.977 29.1364 101.167 31.1359L99.7789 29.6886C101.985 27.6891 103.431 25.004 105.637 23.0235C106.512 22.2427 107.444 21.4809 108.586 21.1572C109.822 20.8144 111.097 21.1191 112.257 21.5952C112.732 21.7856 113.113 22.3379 113.284 22.814C113.379 23.0806 113.455 23.7281 112.961 23.5376C111.287 22.8901 109.651 22.9473 108.129 23.9566C107.502 24.3755 106.931 24.8897 106.398 25.442C106.018 25.8419 105.618 26.2227 105.371 26.7179C105.105 27.2701 105.086 27.8986 105.143 28.508C105.162 28.7365 105.181 28.8317 105.314 29.0793C105.314 29.0793 105.314 29.1364 105.428 29.2126C105.428 29.2126 105.542 29.2887 105.637 29.3078" fill="#779695"/>
<g style="mix-blend-mode:soft-light">
<path d="M11.8313 32.012C18.3655 32.012 23.6625 26.7088 23.6625 20.167C23.6625 13.6251 18.3655 8.32196 11.8313 8.32196C5.29704 8.32196 0 13.6251 0 20.167C0 26.7088 5.29704 32.012 11.8313 32.012Z" fill="#2C5366"/>
</g>
<g style="mix-blend-mode:soft-light">
<path d="M25.7551 40.0292C32.2893 40.0292 37.5864 34.726 37.5864 28.1842C37.5864 21.6424 32.2893 16.3392 25.7551 16.3392C19.2209 16.3392 13.9238 21.6424 13.9238 28.1842C13.9238 34.726 19.2209 40.0292 25.7551 40.0292Z" fill="#BD8B6B"/>
</g>
<g style="mix-blend-mode:soft-light">
<path d="M22.8078 29.0602C29.3421 29.0602 34.6391 23.757 34.6391 17.2152C34.6391 10.6734 29.3421 5.37024 22.8078 5.37024C16.2736 5.37024 10.9766 10.6734 10.9766 17.2152C10.9766 23.757 16.2736 29.0602 22.8078 29.0602Z" fill="#FFF7EA"/>
</g>
<g style="mix-blend-mode:soft-light">
<path d="M14.8 42.9809C21.3342 42.9809 26.6313 37.6778 26.6313 31.136C26.6313 24.5941 21.3342 19.291 14.8 19.291C8.26579 19.291 2.96875 24.5941 2.96875 31.136C2.96875 37.6778 8.26579 42.9809 14.8 42.9809Z" fill="#779695"/>
</g>
</g>
<defs>
<clipPath id="clip0_353_165">
<rect width="134" height="43" fill="white"/>
</clipPath>
</defs>
</svg>
