<svg width="44" height="44" viewBox="0 0 44 44" fill="none" xmlns="http://www.w3.org/2000/svg">
<circle cx="22" cy="22" r="15" transform="rotate(45 22 22)" fill="#E2FBF8"/>
<path d="M26.4961 21.9985C26.6914 21.8033 26.6914 21.4867 26.4961 21.2914L23.3142 18.1095C23.1189 17.9142 22.8023 17.9142 22.607 18.1095C22.4118 18.3047 22.4118 18.6213 22.607 18.8166L25.4355 21.645L22.607 24.4734C22.4118 24.6687 22.4118 24.9853 22.607 25.1805C22.8023 25.3758 23.1189 25.3758 23.3142 25.1805L26.4961 21.9985ZM17.1426 21.145C16.8664 21.145 16.6426 21.3688 16.6426 21.645C16.6426 21.9211 16.8664 22.145 17.1426 22.145V21.145ZM26.1426 21.645V21.145H17.1426V21.645V22.145H26.1426V21.645Z" fill="#12332F"/>
</svg>
