<svg width="33" height="39" viewBox="0 0 33 39" fill="none" xmlns="http://www.w3.org/2000/svg">
<g clip-path="url(#clip0_581_9321)">
<path d="M30.375 16.417C30.375 27.2087 16.5 36.4587 16.5 36.4587C16.5 36.4587 2.625 27.2087 2.625 16.417C2.625 12.7371 4.08683 9.20795 6.68889 6.60588C9.29096 4.00382 12.8201 2.54199 16.5 2.54199C20.1799 2.54199 23.709 4.00382 26.3111 6.60588C28.9132 9.20795 30.375 12.7371 30.375 16.417Z" stroke="#12332F" stroke-width="4" stroke-linecap="round" stroke-linejoin="round"/>
<path d="M16.5 21.042C19.0543 21.042 21.125 18.9713 21.125 16.417C21.125 13.8627 19.0543 11.792 16.5 11.792C13.9457 11.792 11.875 13.8627 11.875 16.417C11.875 18.9713 13.9457 21.042 16.5 21.042Z" stroke="#12332F" stroke-width="4" stroke-linecap="round" stroke-linejoin="round"/>
</g>
<defs>
<clipPath id="clip0_581_9321">
<rect width="33" height="39" fill="white"/>
</clipPath>
</defs>
</svg>
